<svg width="13" height="13" viewBox="0 0 13 13" xmlns="http://www.w3.org/2000/svg">
    <g fill="#C31424" fill-rule="evenodd">
        <path d="M6.428 2.778a.889.889 0 0 0-.888.888v3.55c0 .49.398.889.888.889h.144a.89.89 0 0 0 .888-.888V3.666a.89.89 0 0 0-.888-.888h-.144zm.072 5.78a.961.961 0 0 0 0 1.92.961.961 0 0 0 0-1.92zm0 3.582C3.39 12.14.86 9.61.86 6.5S3.39.86 6.5.86s5.64 2.53 5.64 5.64-2.53 5.64-5.64 5.64z"/>
        <path d="M6.5 10.119a.6.6 0 1 1 0-1.2.6.6 0 0 1 0 1.2zm-.072-2.374a.528.528 0 0 1-.528-.528V3.666c0-.292.236-.528.528-.528h.144c.292 0 .528.236.528.528v3.55a.528.528 0 0 1-.528.529h-.144zM6.5.5a6 6 0 1 0 0 12 6 6 0 0 0 0-12zm-.604 7.845A1.321 1.321 0 0 0 6.5 10.84a1.321 1.321 0 0 0 .604-2.494c.423-.2.716-.63.716-1.128V3.666a1.25 1.25 0 0 0-1.248-1.248h-.144A1.25 1.25 0 0 0 5.18 3.666v3.55c0 .499.293.93.716 1.13zM6.5 1.22a5.286 5.286 0 0 1 5.28 5.28 5.286 5.286 0 0 1-5.28 5.28A5.286 5.286 0 0 1 1.22 6.5 5.286 5.286 0 0 1 6.5 1.22z"/>
    </g>
</svg>
